<?xml version="1.0" standalone="no"?>
<!DOCTYPE svg PUBLIC "-//W3C//DTD SVG 20010904//EN"
 "http://www.w3.org/TR/2001/REC-SVG-20010904/DTD/svg10.dtd">
<svg version="1.0" xmlns="http://www.w3.org/2000/svg"
 width="914.000000pt" height="1280.000000pt" viewBox="0 0 914.000000 1280.000000"
 preserveAspectRatio="xMidYMid meet">
<metadata>
Created by potrace 1.15, written by Peter Selinger 2001-2017
</metadata>
<g transform="translate(0.000000,1280.000000) scale(0.100000,-0.100000)"
fill="#000000" stroke="none">
<path d="M4305 12681 c-22 -4 -50 -13 -63 -19 -12 -7 -28 -12 -35 -10 -16 4
-209 -188 -231 -230 -9 -18 -21 -30 -26 -27 -6 3 -7 0 -4 -8 3 -8 0 -18 -7
-23 -8 -5 -10 -3 -5 7 4 8 -1 4 -11 -9 -10 -13 -38 -47 -63 -76 -54 -64 -93
-133 -138 -246 -34 -84 -34 -86 -28 -195 4 -60 7 -114 8 -120 0 -5 -2 -55 -5
-110 -6 -99 2 -84 19 38 4 26 11 47 17 47 5 0 6 -10 3 -22 -19 -66 -18 -138 5
-283 13 -85 27 -151 32 -148 10 6 -2 161 -14 183 -12 26 -22 218 -10 200 6 -8
12 -55 13 -105 1 -87 2 -88 8 -30 6 55 7 57 10 20 2 -22 4 -58 5 -80 9 -251
37 -406 109 -598 20 -53 34 -102 30 -109 -5 -7 -3 -8 6 -3 10 6 12 4 7 -8 -8
-21 2 -49 14 -41 5 3 6 -3 2 -12 -5 -13 -3 -15 7 -9 9 5 11 4 6 -4 -4 -6 6
-36 22 -66 21 -39 26 -57 18 -63 -30 -23 -91 -42 -191 -61 -195 -38 -270 -73
-350 -164 -89 -102 -150 -247 -221 -527 -20 -80 -66 -221 -104 -315 -37 -93
-98 -253 -135 -355 -81 -220 -110 -288 -192 -440 -34 -63 -71 -144 -83 -180
-12 -36 -57 -241 -100 -456 -85 -421 -113 -540 -165 -707 -31 -97 -44 -121
-127 -238 -167 -234 -150 -193 -147 -354 2 -131 1 -144 -24 -209 -15 -37 -27
-72 -27 -77 0 -5 17 0 37 11 l37 20 12 -43 c6 -23 15 -60 20 -82 10 -43 26
-50 34 -14 9 37 24 32 49 -16 13 -25 29 -44 34 -42 22 7 17 106 -9 195 -37
122 -36 176 6 238 40 58 168 184 188 184 8 0 27 -8 44 -17 24 -15 28 -23 24
-43 -3 -14 -9 -55 -12 -91 -6 -63 -6 -66 26 -102 18 -20 38 -37 44 -37 13 0
46 128 46 178 0 15 9 59 20 97 11 38 20 98 20 133 0 37 -8 86 -20 119 -25 71
-25 91 0 184 30 115 98 277 231 547 144 294 211 451 239 564 35 139 48 171
195 503 136 306 245 570 245 594 0 32 19 0 59 -97 24 -59 77 -187 118 -286 40
-98 73 -193 73 -210 0 -17 29 -116 65 -219 36 -103 65 -202 64 -220 -1 -62 14
-222 22 -232 19 -24 -26 -78 -123 -146 -161 -115 -206 -161 -469 -487 -115
-143 -215 -331 -277 -522 -81 -248 -109 -421 -122 -760 -6 -146 -15 -335 -20
-420 -6 -85 -13 -250 -17 -366 l-6 -211 129 -17 c71 -9 201 -18 289 -19 134
-1 166 2 199 16 21 10 39 17 41 15 1 -2 13 -50 25 -108 13 -58 51 -206 86
-330 96 -335 99 -359 97 -606 -1 -166 -5 -218 -17 -248 -17 -42 -52 -92 -165
-236 -190 -243 -254 -374 -323 -654 -100 -409 -227 -822 -294 -956 l-45 -90
-63 0 c-86 0 -159 -24 -207 -67 -52 -47 -68 -79 -88 -181 -15 -72 -23 -91 -60
-133 -23 -27 -83 -82 -134 -122 -108 -86 -222 -210 -213 -232 12 -31 43 -12
155 98 119 115 211 188 211 166 0 -34 -48 -166 -95 -261 -60 -121 -112 -200
-178 -274 -60 -67 -70 -92 -56 -152 25 -115 126 -243 228 -291 49 -22 69 -26
161 -26 l105 0 37 70 c41 77 45 99 24 150 -22 53 -4 151 40 217 19 28 33 59
32 68 -2 10 18 34 52 61 30 24 65 64 77 87 11 23 38 61 58 83 41 46 74 112 75
148 0 13 15 44 34 70 45 62 66 105 66 136 0 65 201 402 438 734 l96 134 52
-204 c28 -112 77 -287 108 -389 75 -251 106 -383 106 -457 0 -62 0 -63 -37
-82 -42 -21 -138 -117 -170 -171 -12 -19 -27 -54 -34 -78 -11 -39 -10 -48 12
-100 23 -56 24 -63 23 -322 0 -198 -5 -296 -18 -388 -10 -68 -17 -125 -15
-127 2 -1 15 -5 29 -7 24 -3 25 -1 47 137 13 77 30 205 38 285 8 79 19 148 24
153 5 5 14 -13 22 -43 7 -28 19 -56 26 -61 9 -8 10 -16 2 -30 -11 -21 7 -149
21 -149 10 0 15 -122 11 -276 l-2 -121 31 -26 c48 -41 89 -47 336 -47 270 0
265 -2 282 95 24 130 24 145 1 181 -11 19 -41 46 -65 60 -41 24 -44 29 -44 68
0 23 -9 58 -20 79 -24 44 -26 109 -5 141 8 12 18 42 21 67 5 35 2 49 -14 69
-17 21 -18 27 -6 45 22 33 22 172 1 212 -9 18 -17 51 -17 75 -1 24 -7 61 -15
83 -8 22 -17 78 -21 125 -3 47 -16 139 -29 205 -58 287 -79 711 -72 1408 3
281 10 546 17 617 12 122 14 126 55 185 69 99 162 266 183 330 11 33 39 121
62 195 23 74 75 218 115 320 40 102 101 273 136 380 34 107 62 195 63 196 1 1
44 -5 96 -12 133 -18 280 -18 280 0 0 10 36 14 171 18 93 3 173 8 176 12 10
10 -76 771 -131 1151 -13 94 -30 215 -36 270 -7 55 -18 125 -26 155 -8 30 -17
111 -20 180 -3 69 -12 145 -19 170 -8 25 -19 97 -25 160 -14 148 -37 242 -110
468 -33 100 -60 189 -60 196 0 8 6 27 14 43 8 15 26 68 41 118 14 49 29 93 34
98 4 4 38 -39 76 -95 38 -57 121 -173 185 -258 273 -364 497 -710 575 -885 31
-71 92 -159 166 -242 33 -38 74 -92 91 -121 31 -54 82 -112 99 -112 16 0 10
-52 -8 -66 -12 -9 -13 -13 -5 -14 21 0 149 68 173 92 24 26 26 32 -12 -65 -13
-33 -16 -53 -10 -65 6 -11 6 -24 0 -35 -16 -28 7 -20 33 12 12 16 39 51 58 78
l35 50 17 -29 c10 -15 22 -28 27 -28 5 0 7 -9 4 -20 -3 -11 -1 -20 5 -20 6 0
14 17 17 38 3 20 10 59 15 85 6 27 10 83 10 126 l0 77 -54 68 c-37 46 -56 80
-60 107 -4 22 -16 50 -29 63 -12 12 -84 55 -161 95 -145 77 -199 117 -246 187
-31 44 -231 466 -282 593 -16 42 -64 170 -105 286 -80 223 -118 306 -207 452
-58 95 -109 213 -121 276 -6 29 0 53 29 121 66 153 60 246 -31 455 -5 11 2 13
35 8 42 -5 68 7 35 17 -10 3 0 3 22 2 22 -2 51 -7 64 -11 19 -6 22 -5 16 5 -6
10 0 12 28 7 l37 -6 -16 25 c-9 13 -20 24 -25 24 -5 0 -23 9 -41 21 -25 16
-27 19 -9 14 16 -5 21 -4 17 4 -4 6 -3 11 3 11 22 0 -3 32 -40 51 -22 11 -39
22 -39 24 0 10 76 -27 110 -54 52 -41 68 -48 40 -17 -23 26 -40 104 -19 91 5
-4 9 -13 9 -21 0 -8 5 -14 10 -14 6 0 10 3 10 6 0 11 -23 50 -44 72 -20 22
-20 23 -1 16 11 -4 28 -14 38 -22 34 -30 19 18 -24 71 -41 52 -38 78 5 38 35
-33 43 -25 10 10 -35 38 -91 79 -79 58 8 -12 6 -12 -8 -1 -9 8 -31 39 -49 70
-18 30 -52 87 -75 126 -71 120 -102 194 -108 256 -1 19 -8 48 -14 63 -14 35
-14 58 -1 37 7 -12 10 -8 10 15 0 17 -5 37 -11 45 -8 12 -9 10 -4 -7 3 -13 4
-23 0 -23 -12 0 -26 58 -30 125 -2 38 -6 86 -9 105 l-6 35 14 -36 c8 -20 20
-61 27 -92 7 -32 15 -55 17 -52 9 9 33 -57 27 -75 -3 -9 -1 -28 5 -41 9 -21 9
-19 5 11 l-6 35 20 -40 c24 -46 21 -34 -34 158 -22 76 -42 171 -59 283 -8 55
-31 144 -51 199 -19 55 -33 89 -31 76 7 -37 -8 -12 -39 64 -16 39 -42 97 -58
130 -16 33 -33 73 -38 88 -4 15 -45 86 -91 158 -101 159 -183 310 -198 364
-16 56 -131 294 -170 350 -27 39 -29 45 -11 36 11 -6 26 -21 32 -32 6 -11 13
-18 16 -15 3 2 -4 17 -14 33 -36 52 -40 60 -17 43 10 -8 -14 23 -55 68 -93
104 -110 117 -244 182 -104 51 -112 53 -200 55 -51 1 -110 -1 -132 -4z m498
-166 c49 -50 111 -125 106 -128 -2 -1 -50 44 -105 100 -60 60 -89 96 -71 85
17 -9 48 -35 70 -57z m96 -189 c-3 -3 -11 5 -18 17 -13 21 -12 21 5 5 10 -10
16 -20 13 -22z m100 -166 c27 -52 51 -106 55 -120 3 -14 -9 7 -28 45 -34 69
-47 84 -25 28 28 -69 58 -158 54 -161 -4 -4 -105 200 -105 212 0 4 5 4 11 1 5
-4 -6 25 -25 64 -20 39 -36 74 -36 78 1 20 56 -61 99 -147z m226 -711 c9 -17
15 -33 13 -35 -3 -2 -12 12 -21 31 -21 43 -13 47 8 4z m172 -276 c8 -21 33
-103 54 -183 21 -80 56 -208 78 -285 22 -77 41 -153 41 -170 0 -16 9 -59 20
-95 22 -68 32 -120 24 -120 -10 0 -52 103 -47 116 3 8 0 14 -6 14 -6 0 -11 7
-11 15 0 8 -11 52 -24 97 -13 46 -43 171 -65 278 -37 172 -73 317 -88 357 -3
7 -2 13 1 13 4 0 14 -17 23 -37z m-1540 -60 c-3 -10 -5 -2 -5 17 0 19 2 27 5
18 2 -10 2 -26 0 -35z m45 -81 c9 -32 20 -67 23 -77 6 -17 4 -17 -14 3 -29 34
-54 132 -33 132 4 0 15 -26 24 -58z m1475 -192 c-4 -16 -32 99 -41 165 -3 22
6 -3 19 -55 14 -52 24 -102 22 -110z m100 138 c-3 -8 -6 -5 -6 6 -1 11 2 17 5
13 3 -3 4 -12 1 -19z m10 -40 c-3 -8 -6 -5 -6 6 -1 11 2 17 5 13 3 -3 4 -12 1
-19z m-1552 -28 c10 -11 37 -68 61 -126 24 -59 47 -110 50 -113 4 -3 4 3 0 14
-19 49 -14 45 14 -11 25 -51 29 -66 21 -88 -6 -14 -14 -26 -19 -26 -10 0 -93
181 -134 293 -28 78 -26 94 7 57z m1715 -702 c15 -21 17 -28 6 -19 -16 13 -41
51 -33 51 2 0 14 -15 27 -32z m1041 -3387 c56 -38 82 -82 72 -121 -5 -18 -18
-39 -30 -47 -20 -14 -23 -12 -50 27 -44 66 -83 134 -83 147 0 6 10 14 23 16
28 5 26 6 68 -22z m-3468 -5216 c-3 -9 -8 -14 -10 -11 -3 3 -2 9 2 15 9 16 15
13 8 -4z m-93 -200 c-35 -36 -50 -40 -29 -8 9 16 38 36 58 42 3 0 -10 -15 -29
-34z m-120 -165 c-40 -35 -55 -38 -40 -9 7 11 18 18 25 15 7 -2 19 2 25 10 7
8 15 14 19 14 3 -1 -10 -14 -29 -30z m-150 -412 c0 -19 -2 -20 -10 -8 -13 19
-13 30 0 30 6 0 10 -10 10 -22z"/>
<path d="M4051 10655 c0 -5 6 -21 14 -35 8 -14 14 -20 14 -15 0 6 -6 21 -14
35 -8 14 -14 21 -14 15z"/>
<path d="M3701 11434 c0 -11 3 -14 6 -6 3 7 2 16 -1 19 -3 4 -6 -2 -5 -13z"/>
<path d="M5456 11397 c3 -10 9 -15 12 -12 3 3 0 11 -7 18 -10 9 -11 8 -5 -6z"/>
<path d="M3693 11305 c0 -38 2 -53 4 -32 2 20 2 52 0 70 -2 17 -4 1 -4 -38z"/>
<path d="M5471 11365 c0 -5 8 -26 19 -45 11 -19 19 -30 19 -25 0 6 -8 26 -19
45 -11 19 -19 31 -19 25z"/>
<path d="M3771 11214 c0 -11 3 -14 6 -6 3 7 2 16 -1 19 -3 4 -6 -2 -5 -13z"/>
<path d="M3702 11200 c0 -14 2 -19 5 -12 2 6 2 18 0 25 -3 6 -5 1 -5 -13z"/>
<path d="M5671 10385 c1 -19 18 -51 18 -35 0 8 -4 22 -9 30 -5 8 -9 11 -9 5z"/>
<path d="M5660 10321 c0 -6 4 -13 10 -16 6 -3 7 1 4 9 -7 18 -14 21 -14 7z"/>
<path d="M5731 10290 c14 -31 19 -36 19 -24 0 6 -7 19 -16 30 -14 18 -14 18
-3 -6z"/>
<path d="M5730 10227 c0 -15 33 -72 56 -97 13 -14 33 -36 45 -50 l21 -25 -17
30 c-9 17 -26 38 -36 47 -11 9 -30 36 -44 60 -14 24 -25 39 -25 35z"/>
</g>
</svg>
